<svg xmlns="http://www.w3.org/2000/svg" width="1600" height="1880" viewBox="0 0 1600 1880">
<style>
.bg{fill:#f8fafc}.title{font:700 30px Arial,sans-serif;fill:#111827}.subtitle{font:15px Arial,sans-serif;fill:#475569}.panel{fill:#fff;stroke:#cbd5e1;stroke-width:2}.panel-title{font:700 18px Arial,sans-serif;fill:#0f172a}.panel-subtitle{font:13px Arial,sans-serif;fill:#64748b}.filter{fill:#f1f5f9;stroke:#cbd5e1;stroke-width:1.5}.kpi{fill:#e0f2fe;stroke:#0284c7;stroke-width:1.5}.trend{fill:#eef2ff;stroke:#4f46e5;stroke-width:1.5}.breakdown{fill:#ecfdf5;stroke:#059669;stroke-width:1.5}.detail{fill:#fff7ed;stroke:#ea580c;stroke-width:1.5}.plan{fill:#fdf2f8;stroke:#db2777;stroke-width:1.5}.mini-title{font:700 12px Arial,sans-serif;fill:#0f172a}.visual-title{font:700 13px Arial,sans-serif;fill:#111827}.tiny{font:11px Arial,sans-serif;fill:#334155}.small{font:13px Arial,sans-serif;fill:#334155}.micro{font:9px Arial,sans-serif;fill:#64748b}.spark{fill:none;stroke:#4f46e5;stroke-width:4;stroke-linecap:round;stroke-linejoin:round}.spark-plan{fill:none;stroke:#db2777;stroke-width:3.5;stroke-linecap:round;stroke-linejoin:round}.spark-alt{fill:none;stroke:#0ea5e9;stroke-width:3;stroke-linecap:round;stroke-dasharray:6 5}.axis{stroke:#94a3b8;stroke-width:1}.soft-line{stroke:#9a3412;stroke-width:1.6}.bar{fill:#86efac;stroke:#059669;stroke-width:1}.bar-mini{fill:#fdba74}.bar-plan{fill:#f9a8d4;stroke:#db2777;stroke-width:1}.dot{fill:#818cf8;stroke:#4f46e5;stroke-width:1}.stack1{fill:#60a5fa}.stack2{fill:#86efac}.stack3{fill:#fdba74}.donut-base{fill:none;stroke:#fdba74;stroke-width:8}.donut-slice{fill:none;stroke:#ea580c;stroke-width:8;stroke-linecap:round}.map{fill:#bfdbfe;stroke:#2563eb;stroke-width:1.5}.map-dot{fill:#059669;opacity:.85}.matrix-head{fill:#fed7aa;stroke:#9a3412;stroke-width:1.4}.matrix-cell{fill:#fffaf0;stroke:#9a3412;stroke-width:1.2}.matrix-label{font:700 9px Arial,sans-serif;fill:#7c2d12}.matrix-row{font:9px Arial,sans-serif;fill:#431407}.matrix-row-strong{font:700 9px Arial,sans-serif;fill:#431407}.matrix-total{font:700 9px Arial,sans-serif;fill:#7c2d12}.matrix-subtotal{fill:#ffedd5;stroke:#9a3412;stroke-width:.8}.matrix-good{fill:#dcfce7;stroke:#16a34a;stroke-width:.8}.matrix-bad{fill:#fee2e2;stroke:#dc2626;stroke-width:.8}
</style>
<rect x="0" y="0" width="1600" height="1880" rx="0" class="bg"/>
<text x="40" y="44" class="title">VanArsdel Sales Performance Dashboard - Wireframe Overview</text>
<text x="40" y="70" class="subtitle">Business mockup for DA build: each visual has annotation plus a non-overlapping chart/table placeholder.</text>
<rect x="40" y="90" width="24" height="18" rx="4" class="filter"/>
<text x="72" y="104" class="tiny">Slicer/filter</text>
<rect x="250" y="90" width="24" height="18" rx="4" class="kpi"/>
<text x="282" y="104" class="tiny">KPI card</text>
<rect x="460" y="90" width="24" height="18" rx="4" class="trend"/>
<text x="492" y="104" class="tiny">Trend/comparison</text>
<rect x="670" y="90" width="24" height="18" rx="4" class="breakdown"/>
<text x="702" y="104" class="tiny">Breakdown</text>
<rect x="880" y="90" width="24" height="18" rx="4" class="detail"/>
<text x="912" y="104" class="tiny">Detail table/matrix</text>
<rect x="1090" y="90" width="24" height="18" rx="4" class="plan"/>
<text x="1122" y="104" class="tiny">Budget/forecast</text>
<rect x="40" y="130" width="1520" height="500" rx="14" class="panel"/>
<text x="58" y="160" class="panel-title">Page 1 - Executive Overview</text>
<text x="58" y="182" class="panel-subtitle">Leadership summary: what changed, where performance comes from, and where to drill.</text>
<rect x="58" y="198" width="1484" height="34" rx="8" class="filter"/>
<text x="70" y="220" class="tiny">Slicers: Year | Quarter/Month | Category | Region | Traffic Channel</text>
<rect x="58.0" y="246" width="240.7" height="52" rx="8" class="kpi"/>
<text x="68.0" y="267" class="mini-title">Revenue</text>
<text x="68.0" y="286" class="tiny">[Revenue]</text>
<rect x="306.7" y="246" width="240.7" height="52" rx="8" class="kpi"/>
<text x="316.7" y="267" class="mini-title">Gross Profit</text>
<text x="316.7" y="286" class="tiny">[Gross Profit]</text>
<rect x="555.3" y="246" width="240.7" height="52" rx="8" class="kpi"/>
<text x="565.3" y="267" class="mini-title">GM %</text>
<text x="565.3" y="286" class="tiny">[Gross Margin %]</text>
<rect x="804.0" y="246" width="240.7" height="52" rx="8" class="kpi"/>
<text x="814.0" y="267" class="mini-title">Units</text>
<text x="814.0" y="286" class="tiny">[Units Sold]</text>
<rect x="1052.7" y="246" width="240.7" height="52" rx="8" class="kpi"/>
<text x="1062.7" y="267" class="mini-title">Customers</text>
<text x="1062.7" y="286" class="tiny">[Active Customers]</text>
<rect x="1301.3" y="246" width="240.7" height="52" rx="8" class="kpi"/>
<text x="1311.3" y="267" class="mini-title">YoY %</text>
<text x="1311.3" y="286" class="tiny">[Revenue YoY %]</text>
<rect x="58" y="314" width="620" height="190" rx="10" class="trend"/>
<text x="70" y="336" class="visual-title">Line: Revenue trend by Month</text>
<text x="70" y="356" class="tiny">Metric: [Revenue]; optional [Revenue PY]</text>
<text x="70" y="371" class="tiny">Axis: Date[Month Year]; default 2020 Jan-Jun</text>
<polyline points="76.0,470.0 192.8,446.0 309.6,458.0 426.4,418.0 543.2,432.0 660.0,402.0" class="spark"/>
<line x1="76" y1="488" x2="660" y2="488" class="axis"/>
<rect x="698" y="314" width="390" height="190" rx="10" class="breakdown"/>
<text x="710" y="336" class="visual-title">Column: Revenue by Category</text>
<text x="710" y="356" class="tiny">Metric: [Revenue]</text>
<text x="710" y="371" class="tiny">Axis: Product[Category]</text>
<rect x="748.5" y="454.4" width="26.0" height="33.6" class="bar"/>
<rect x="807.5" y="432.3" width="26.0" height="55.7" class="bar"/>
<rect x="866.5" y="399.7" width="26.0" height="88.3" class="bar"/>
<rect x="925.5" y="438.1" width="26.0" height="49.9" class="bar"/>
<rect x="984.5" y="417.0" width="26.0" height="71.0" class="bar"/>
<line x1="716" y1="488" x2="1070" y2="488" class="axis"/>
<rect x="1108" y="314" width="434" height="190" rx="10" class="breakdown"/>
<text x="1120" y="336" class="visual-title">Geo / region contribution</text>
<text x="1120" y="356" class="tiny">Metric: [Revenue]</text>
<text x="1120" y="371" class="tiny">Dimension: Geo[Region] or Geo[State]</text>
<rect x="1162.5" y="454.4" width="26.0" height="33.6" class="bar"/>
<rect x="1228.8" y="432.3" width="26.0" height="55.7" class="bar"/>
<rect x="1295.2" y="399.7" width="26.0" height="88.3" class="bar"/>
<rect x="1361.5" y="438.1" width="26.0" height="49.9" class="bar"/>
<rect x="1427.8" y="417.0" width="26.0" height="71.0" class="bar"/>
<line x1="1126" y1="488" x2="1524" y2="488" class="axis"/>
<rect x="58" y="522" width="410" height="86" rx="10" class="detail"/>
<text x="70" y="544" class="visual-title">Channel share</text>
<text x="70" y="564" class="tiny">Metric: [Revenue Share %]</text>
<text x="70" y="579" class="tiny">Legend: Campaign[Traffic Channel]</text>
<circle cx="434.0" cy="567.0" r="15" class="donut-base"/>
<path d="M 434.0 552.0 A 15 15 0 0 1 448.0 571.0" class="donut-slice"/>
<rect x="488" y="522" width="1054" height="86" rx="10" class="detail"/>
<rect x="1000" y="536" width="518" height="60" class="matrix-cell"/>
<rect x="1000" y="536" width="518" height="16" class="matrix-head"/>
<text x="1008" y="548" class="matrix-label">Matrix rows / drill</text>
<text x="1198" y="548" class="matrix-label">Revenue</text>
<text x="1308" y="548" class="matrix-label">GP</text>
<text x="1418" y="548" class="matrix-label">GM%</text>
<text x="1008" y="563" class="matrix-row-strong">[-] Category A</text>
<text x="1024" y="577" class="matrix-row">[+] Segment A1</text>
<rect x="1000" y="582" width="518" height="14" class="matrix-subtotal"/>
<text x="1008" y="592" class="matrix-total">Total</text>
<text x="1198" y="563" class="matrix-row">1.2M</text>
<text x="1308" y="563" class="matrix-row">310K</text>
<text x="1418" y="563" class="matrix-row">26%</text>
<text x="1198" y="577" class="matrix-row">420K</text>
<text x="1308" y="577" class="matrix-row">95K</text>
<text x="1418" y="577" class="matrix-row">23%</text>
<text x="1198" y="592" class="matrix-total">1.62M</text>
<text x="1308" y="592" class="matrix-total">405K</text>
<text x="1418" y="592" class="matrix-total">25%</text>
<line x1="1000" y1="566" x2="1518" y2="566" class="soft-line"/>
<line x1="1000" y1="580" x2="1518" y2="580" class="soft-line"/>
<line x1="1188" y1="552" x2="1188" y2="596" class="soft-line"/>
<line x1="1298" y1="552" x2="1298" y2="596" class="soft-line"/>
<line x1="1408" y1="552" x2="1408" y2="596" class="soft-line"/>
<text x="500" y="544" class="visual-title">Power BI Matrix visual: Category &gt; Segment</text>
<text x="500" y="564" class="tiny">Rows: Product[Category] &gt; Product[Segment]</text>
<text x="500" y="579" class="tiny">Shows expand/collapse, subtotal, Revenue, GP, GM %</text>
<rect x="40" y="660" width="740" height="560" rx="14" class="panel"/>
<text x="58" y="690" class="panel-title">Page 2 - Product &amp; Segment Performance</text>
<text x="58" y="712" class="panel-subtitle">Category managers identify portfolio winners, margin issues, and SKU detail.</text>
<rect x="58" y="728" width="704" height="34" rx="8" class="filter"/>
<text x="70" y="750" class="tiny">Slicers: Year | Category | Segment | Region | Traffic Channel</text>
<rect x="58.0" y="776" width="134.4" height="52" rx="8" class="kpi"/>
<text x="68.0" y="797" class="mini-title">Revenue</text>
<text x="68.0" y="816" class="tiny">[Revenue]</text>
<rect x="200.4" y="776" width="134.4" height="52" rx="8" class="kpi"/>
<text x="210.4" y="797" class="mini-title">GP</text>
<text x="210.4" y="816" class="tiny">[Gross Profit]</text>
<rect x="342.8" y="776" width="134.4" height="52" rx="8" class="kpi"/>
<text x="352.8" y="797" class="mini-title">GM %</text>
<text x="352.8" y="816" class="tiny">[Gross Margin %]</text>
<rect x="485.2" y="776" width="134.4" height="52" rx="8" class="kpi"/>
<text x="495.2" y="797" class="mini-title">ASP</text>
<text x="495.2" y="816" class="tiny">[Average Selling Price]</text>
<rect x="627.6" y="776" width="134.4" height="52" rx="8" class="kpi"/>
<text x="637.6" y="797" class="mini-title">Units</text>
<text x="637.6" y="816" class="tiny">[Units Sold]</text>
<rect x="58" y="844" width="330" height="170" rx="10" class="breakdown"/>
<text x="70" y="866" class="visual-title">Bar hierarchy: Revenue by Category -&gt; Segment</text>
<text x="70" y="886" class="tiny">Metric: [Revenue]</text>
<text x="70" y="901" class="tiny">Axis: Category then Segment</text>
<rect x="103.0" y="971.4" width="26.0" height="26.6" class="bar"/>
<rect x="151.9" y="953.9" width="26.0" height="44.1" class="bar"/>
<rect x="200.9" y="928.1" width="26.0" height="69.9" class="bar"/>
<rect x="249.9" y="958.5" width="26.0" height="39.5" class="bar"/>
<rect x="298.9" y="941.8" width="26.0" height="56.2" class="bar"/>
<line x1="76" y1="998" x2="370" y2="998" class="axis"/>
<rect x="408" y="844" width="354" height="170" rx="10" class="trend"/>
<text x="420" y="866" class="visual-title">Scatter: Product revenue vs margin</text>
<text x="420" y="886" class="tiny">X: [Revenue]; Y: [Gross Margin %]</text>
<text x="420" y="901" class="tiny">Size: [Units Sold]; Detail: Product</text>
<line x1="426" y1="998" x2="744" y2="998" class="axis"/>
<line x1="426" y1="918" x2="426" y2="998" class="axis"/>
<circle cx="483.2" cy="974.0" r="6" class="dot"/>
<circle cx="534.1" cy="943.6" r="8" class="dot"/>
<circle cx="585.0" cy="962.0" r="5" class="dot"/>
<circle cx="629.5" cy="935.6" r="10" class="dot"/>
<circle cx="680.4" cy="954.0" r="7" class="dot"/>
<rect x="58" y="1034" width="704" height="160" rx="10" class="detail"/>
<rect x="90" y="1116" width="640" height="72" class="matrix-cell"/>
<rect x="90" y="1116" width="640" height="18" class="matrix-head"/>
<text x="102" y="1129" class="matrix-label">Matrix rows: Category &gt; Segment &gt; Product</text>
<text x="382" y="1129" class="matrix-label">Revenue</text>
<text x="482" y="1129" class="matrix-label">Units</text>
<text x="570" y="1129" class="matrix-label">ASP</text>
<text x="650" y="1129" class="matrix-label">GM%</text>
<text x="102" y="1146" class="matrix-row-strong">[-] Category A</text>
<text x="120" y="1159" class="matrix-row">[-] Segment A1</text>
<text x="138" y="1172" class="matrix-row">Product A</text>
<rect x="90" y="1174" width="640" height="14" class="matrix-subtotal"/>
<text x="102" y="1185" class="matrix-total">Segment subtotal</text>
<text x="382" y="1146" class="matrix-row">1.2M</text>
<text x="482" y="1146" class="matrix-row">8.4K</text>
<text x="570" y="1146" class="matrix-row">142</text>
<text x="650" y="1146" class="matrix-row">26%</text>
<text x="382" y="1159" class="matrix-row">420K</text>
<text x="482" y="1159" class="matrix-row">2.9K</text>
<text x="570" y="1159" class="matrix-row">145</text>
<text x="650" y="1159" class="matrix-row">23%</text>
<text x="382" y="1172" class="matrix-row">85K</text>
<text x="482" y="1172" class="matrix-row">620</text>
<text x="570" y="1172" class="matrix-row">137</text>
<text x="650" y="1172" class="matrix-row">21%</text>
<text x="382" y="1185" class="matrix-total">420K</text>
<text x="482" y="1185" class="matrix-total">2.9K</text>
<text x="570" y="1185" class="matrix-total">145</text>
<text x="650" y="1185" class="matrix-total">23%</text>
<line x1="90" y1="1150" x2="730" y2="1150" class="soft-line"/>
<line x1="90" y1="1163" x2="730" y2="1163" class="soft-line"/>
<line x1="90" y1="1176" x2="730" y2="1176" class="soft-line"/>
<line x1="370" y1="1134" x2="370" y2="1188" class="soft-line"/>
<line x1="470" y1="1134" x2="470" y2="1188" class="soft-line"/>
<line x1="560" y1="1134" x2="560" y2="1188" class="soft-line"/>
<line x1="640" y1="1134" x2="640" y2="1188" class="soft-line"/>
<text x="70" y="1056" class="visual-title">Power BI Matrix: Product hierarchy</text>
<text x="70" y="1076" class="tiny">Rows: Product, Category, Segment</text>
<text x="70" y="1091" class="tiny">Indented drill rows plus subtotal; values: Revenue, Units, ASP, GM %</text>
<text x="70" y="1106" class="tiny">Sort: Revenue descending; default Top 20</text>
<rect x="820" y="660" width="740" height="560" rx="14" class="panel"/>
<text x="838" y="690" class="panel-title">Page 3 - Marketing Channel &amp; Device</text>
<text x="838" y="712" class="panel-subtitle">Marketing sees channel/device revenue, customer reach, and digital/offline mix.</text>
<rect x="838" y="728" width="704" height="34" rx="8" class="filter"/>
<text x="850" y="750" class="tiny">Slicers: Year | Traffic Channel | Device | Category | Region</text>
<rect x="838.0" y="776" width="134.4" height="52" rx="8" class="kpi"/>
<text x="848.0" y="797" class="mini-title">Revenue</text>
<text x="848.0" y="816" class="tiny">[Revenue]</text>
<rect x="980.4" y="776" width="134.4" height="52" rx="8" class="kpi"/>
<text x="990.4" y="797" class="mini-title">Customers</text>
<text x="990.4" y="816" class="tiny">[Active Customers]</text>
<rect x="1122.8" y="776" width="134.4" height="52" rx="8" class="kpi"/>
<text x="1132.8" y="797" class="mini-title">Digital %</text>
<text x="1132.8" y="816" class="tiny">[Digital Rev Share %]</text>
<rect x="1265.2" y="776" width="134.4" height="52" rx="8" class="kpi"/>
<text x="1275.2" y="797" class="mini-title">ASP</text>
<text x="1275.2" y="816" class="tiny">[Average Selling Price]</text>
<rect x="1407.6" y="776" width="134.4" height="52" rx="8" class="kpi"/>
<text x="1417.6" y="797" class="mini-title">GM %</text>
<text x="1417.6" y="816" class="tiny">[Gross Margin %]</text>
<rect x="838" y="844" width="330" height="170" rx="10" class="trend"/>
<text x="850" y="866" class="visual-title">100% stacked: Channel mix over Month</text>
<text x="850" y="886" class="tiny">Metric: [Revenue]</text>
<text x="850" y="901" class="tiny">Axis: Date[Month]; Legend: Traffic Channel</text>
<rect x="898.0" y="962.0" width="23.1" height="36.0" class="stack1"/>
<rect x="898.0" y="942.0" width="23.1" height="20.0" class="stack2"/>
<rect x="898.0" y="918.0" width="23.1" height="24.0" class="stack3"/>
<rect x="940.0" y="958.0" width="23.1" height="40.0" class="stack1"/>
<rect x="940.0" y="935.6" width="23.1" height="22.4" class="stack2"/>
<rect x="940.0" y="918.0" width="23.1" height="17.6" class="stack3"/>
<rect x="982.0" y="951.6" width="23.1" height="46.4" class="stack1"/>
<rect x="982.0" y="934.0" width="23.1" height="17.6" class="stack2"/>
<rect x="982.0" y="918.0" width="23.1" height="16.0" class="stack3"/>
<rect x="1024.0" y="946.8" width="23.1" height="51.2" class="stack1"/>
<rect x="1024.0" y="930.8" width="23.1" height="16.0" class="stack2"/>
<rect x="1024.0" y="918.0" width="23.1" height="12.8" class="stack3"/>
<rect x="1066.0" y="942.0" width="23.1" height="56.0" class="stack1"/>
<rect x="1066.0" y="927.6" width="23.1" height="14.4" class="stack2"/>
<rect x="1066.0" y="918.0" width="23.1" height="9.6" class="stack3"/>
<line x1="856" y1="998" x2="1150" y2="998" class="axis"/>
<rect x="1188" y="844" width="354" height="170" rx="10" class="breakdown"/>
<text x="1200" y="866" class="visual-title">Bar: Revenue by Channel and Device</text>
<text x="1200" y="886" class="tiny">Metric: [Revenue]</text>
<text x="1200" y="901" class="tiny">Axis: Traffic Channel + Device</text>
<rect x="1235.2" y="971.4" width="26.0" height="26.6" class="bar"/>
<rect x="1288.2" y="953.9" width="26.0" height="44.1" class="bar"/>
<rect x="1341.2" y="928.1" width="26.0" height="69.9" class="bar"/>
<rect x="1394.2" y="958.5" width="26.0" height="39.5" class="bar"/>
<rect x="1447.2" y="941.8" width="26.0" height="56.2" class="bar"/>
<line x1="1206" y1="998" x2="1524" y2="998" class="axis"/>
<rect x="838" y="1034" width="330" height="160" rx="10" class="trend"/>
<text x="850" y="1056" class="visual-title">Line: Digital vs Offline Revenue</text>
<text x="850" y="1076" class="tiny">Metric: [Revenue]</text>
<text x="850" y="1091" class="tiny">Series: Channel Type; Axis: Month</text>
<polyline points="856.0,1165.4 914.8,1148.6 973.6,1157.0 1032.4,1129.0 1091.2,1138.8 1150.0,1117.8" class="spark"/>
<line x1="856" y1="1178" x2="1150" y2="1178" class="axis"/>
<rect x="1188" y="1034" width="354" height="160" rx="10" class="detail"/>
<text x="1200" y="1056" class="visual-title">Power BI Matrix: Channel x Device</text>
<text x="1200" y="1076" class="tiny">Rows: Traffic Channel, Device</text>
<text x="1200" y="1091" class="tiny">Values: Revenue, Units, Customers, Share %, GM %</text>
<rect x="1210" y="1112" width="310" height="64" class="matrix-cell"/>
<rect x="1210" y="1112" width="310" height="18" class="matrix-head"/>
<text x="1220" y="1125" class="matrix-label">Matrix rows: Channel &gt; Device</text>
<text x="1365" y="1125" class="matrix-label">Revenue</text>
<text x="1460" y="1125" class="matrix-label">Share%</text>
<text x="1220" y="1142" class="matrix-row-strong">[-] Digital</text>
<text x="1238" y="1156" class="matrix-row">[+] Mobile</text>
<rect x="1210" y="1162" width="310" height="14" class="matrix-subtotal"/>
<text x="1220" y="1172" class="matrix-total">Digital subtotal</text>
<text x="1365" y="1172" class="matrix-total">760K</text>
<text x="1460" y="1172" class="matrix-total">62%</text>
<text x="1365" y="1142" class="matrix-row">760K</text>
<text x="1460" y="1142" class="matrix-row">62%</text>
<text x="1365" y="1156" class="matrix-row">310K</text>
<text x="1460" y="1156" class="matrix-row">25%</text>
<line x1="1210" y1="1146" x2="1520" y2="1146" class="soft-line"/>
<line x1="1210" y1="1160" x2="1520" y2="1160" class="soft-line"/>
<line x1="1355" y1="1130" x2="1355" y2="1176" class="soft-line"/>
<line x1="1450" y1="1130" x2="1450" y2="1176" class="soft-line"/>
<rect x="40" y="1250" width="740" height="560" rx="14" class="panel"/>
<text x="58" y="1280" class="panel-title">Page 4 - Geo Performance</text>
<text x="58" y="1302" class="panel-subtitle">Sales Ops finds strong/weak regions, states, and districts for action.</text>
<rect x="58" y="1318" width="704" height="34" rx="8" class="filter"/>
<text x="70" y="1340" class="tiny">Slicers: Year | Region | State | Category | Traffic Channel</text>
<rect x="58.0" y="1366" width="134.4" height="52" rx="8" class="kpi"/>
<text x="68.0" y="1387" class="mini-title">Revenue</text>
<text x="68.0" y="1406" class="tiny">[Revenue]</text>
<rect x="200.4" y="1366" width="134.4" height="52" rx="8" class="kpi"/>
<text x="210.4" y="1387" class="mini-title">GP</text>
<text x="210.4" y="1406" class="tiny">[Gross Profit]</text>
<rect x="342.8" y="1366" width="134.4" height="52" rx="8" class="kpi"/>
<text x="352.8" y="1387" class="mini-title">GM %</text>
<text x="352.8" y="1406" class="tiny">[Gross Margin %]</text>
<rect x="485.2" y="1366" width="134.4" height="52" rx="8" class="kpi"/>
<text x="495.2" y="1387" class="mini-title">Customers</text>
<text x="495.2" y="1406" class="tiny">[Active Customers]</text>
<rect x="627.6" y="1366" width="134.4" height="52" rx="8" class="kpi"/>
<text x="637.6" y="1387" class="mini-title">YoY %</text>
<text x="637.6" y="1406" class="tiny">[Revenue YoY %]</text>
<rect x="58" y="1434" width="330" height="170" rx="10" class="breakdown"/>
<text x="70" y="1456" class="visual-title">Map/fill alternative: Revenue by State/City</text>
<text x="70" y="1476" class="tiny">Metric: [Revenue]</text>
<text x="70" y="1491" class="tiny">Location: State or City; Country = USA</text>
<path d="M 133.0 1538.0 L 178.0 1503.0 L 241.0 1520.0 L 301.0 1546.0 L 267.0 1590.0 L 203.0 1582.0 L 141.0 1566.0 Z" class="map"/>
<circle cx="178.0" cy="1538.0" r="7" class="map-dot"/>
<circle cx="231.0" cy="1552.0" r="11" class="map-dot"/>
<circle cx="278.0" cy="1540.0" r="8" class="map-dot"/>
<circle cx="218.0" cy="1576.0" r="6" class="map-dot"/>
<rect x="408" y="1434" width="354" height="170" rx="10" class="breakdown"/>
<text x="420" y="1456" class="visual-title">Bar: Revenue by Region then State</text>
<text x="420" y="1476" class="tiny">Metric: [Revenue]</text>
<text x="420" y="1491" class="tiny">Axis: Region &gt; State</text>
<rect x="455.1" y="1561.4" width="26.0" height="26.6" class="bar"/>
<rect x="508.1" y="1543.9" width="26.0" height="44.1" class="bar"/>
<rect x="561.1" y="1518.1" width="26.0" height="69.9" class="bar"/>
<rect x="614.1" y="1548.5" width="26.0" height="39.5" class="bar"/>
<rect x="667.1" y="1531.8" width="26.0" height="56.2" class="bar"/>
<line x1="426" y1="1588" x2="744" y2="1588" class="axis"/>
<rect x="58" y="1624" width="430" height="160" rx="10" class="detail"/>
<rect x="88" y="1708" width="370" height="66" class="matrix-cell"/>
<rect x="88" y="1708" width="370" height="18" class="matrix-head"/>
<text x="98" y="1721" class="matrix-label">Matrix rows: Region &gt; State &gt; District</text>
<text x="290" y="1721" class="matrix-label">Revenue</text>
<text x="380" y="1721" class="matrix-label">GM%</text>
<text x="98" y="1737" class="matrix-row-strong">[-] Central</text>
<text x="116" y="1750" class="matrix-row">[-] Texas</text>
<text x="134" y="1763" class="matrix-row">District 12</text>
<rect x="88" y="1765" width="370" height="12" class="matrix-subtotal"/>
<text x="98" y="1775" class="matrix-total">State subtotal</text>
<text x="290" y="1737" class="matrix-row">480K</text>
<text x="380" y="1737" class="matrix-row">25%</text>
<text x="290" y="1750" class="matrix-row">210K</text>
<text x="380" y="1750" class="matrix-row">22%</text>
<text x="290" y="1763" class="matrix-row">75K</text>
<text x="380" y="1763" class="matrix-row">20%</text>
<text x="290" y="1775" class="matrix-total">210K</text>
<text x="380" y="1775" class="matrix-total">22%</text>
<line x1="88" y1="1741" x2="458" y2="1741" class="soft-line"/>
<line x1="88" y1="1754" x2="458" y2="1754" class="soft-line"/>
<line x1="88" y1="1767" x2="458" y2="1767" class="soft-line"/>
<line x1="280" y1="1726" x2="280" y2="1774" class="soft-line"/>
<line x1="370" y1="1726" x2="370" y2="1774" class="soft-line"/>
<text x="70" y="1646" class="visual-title">Power BI Matrix: Region &gt; State &gt; District</text>
<text x="70" y="1666" class="tiny">Values: Revenue, Units, Customers, GM %, YoY %</text>
<text x="70" y="1681" class="tiny">Expandable rows, state subtotal, conditional GM/YoY colors</text>
<rect x="508" y="1624" width="254" height="160" rx="10" class="detail"/>
<text x="520" y="1646" class="visual-title">Top/Bottom list</text>
<text x="520" y="1666" class="tiny">Top 10 by Revenue</text>
<text x="520" y="1681" class="tiny">Bottom 10 by Revenue YoY %</text>
<text x="526" y="1714" class="micro">Top 10</text>
<rect x="604" y="1703" width="106.2" height="10" class="bar-mini"/>
<text x="526" y="1742" class="micro">Bottom 10</text>
<rect x="604" y="1731" width="80.2" height="10" class="bar-mini"/>
<text x="526" y="1770" class="micro">Action list</text>
<rect x="604" y="1759" width="54.3" height="10" class="bar-mini"/>
<rect x="820" y="1250" width="740" height="560" rx="14" class="panel"/>
<text x="838" y="1280" class="panel-title">Page 5 - Budget &amp; Forecast</text>
<text x="838" y="1302" class="panel-subtitle">FP&amp;A tracks actual-vs-budget only where actuals overlap; 2021 plan is separate.</text>
<rect x="838" y="1318" width="704" height="34" rx="8" class="filter"/>
<text x="850" y="1340" class="tiny">Slicers: Year | Month | Category | Segment</text>
<rect x="838.0" y="1366" width="134.4" height="52" rx="8" class="kpi"/>
<text x="848.0" y="1387" class="mini-title">Revenue</text>
<text x="848.0" y="1406" class="tiny">[Revenue]</text>
<rect x="980.4" y="1366" width="134.4" height="52" rx="8" class="kpi"/>
<text x="990.4" y="1387" class="mini-title">Budget</text>
<text x="990.4" y="1406" class="tiny">[Budget]</text>
<rect x="1122.8" y="1366" width="134.4" height="52" rx="8" class="kpi"/>
<text x="1132.8" y="1387" class="mini-title">Attain %</text>
<text x="1132.8" y="1406" class="tiny">[Budget Attainment %]</text>
<rect x="1265.2" y="1366" width="134.4" height="52" rx="8" class="kpi"/>
<text x="1275.2" y="1387" class="mini-title">Var $</text>
<text x="1275.2" y="1406" class="tiny">[Budget Variance]</text>
<rect x="1407.6" y="1366" width="134.4" height="52" rx="8" class="kpi"/>
<text x="1417.6" y="1387" class="mini-title">Var %</text>
<text x="1417.6" y="1406" class="tiny">[Budget Variance %]</text>
<rect x="838" y="1434" width="330" height="170" rx="10" class="plan"/>
<text x="850" y="1456" class="visual-title">Combo: Actual Revenue vs Budget by Month</text>
<text x="850" y="1476" class="tiny">Metrics: [Revenue], [Budget]</text>
<text x="850" y="1491" class="tiny">Axis: Date[Month]; Filter: 2020 Jan-Jun</text>
<rect x="883.0" y="1554.4" width="22.0" height="33.6" class="bar-plan"/>
<rect x="932.0" y="1538.4" width="22.0" height="49.6" class="bar-plan"/>
<rect x="981.0" y="1527.2" width="22.0" height="60.8" class="bar-plan"/>
<rect x="1030.0" y="1544.0" width="22.0" height="44.0" class="bar-plan"/>
<rect x="1079.0" y="1517.6" width="22.0" height="70.4" class="bar-plan"/>
<polyline points="894.0,1551.2 943.0,1540.0 992.0,1532.0 1041.0,1535.2 1090.0,1522.4" class="spark-plan"/>
<line x1="856" y1="1588" x2="1150" y2="1588" class="axis"/>
<rect x="1188" y="1434" width="354" height="170" rx="10" class="plan"/>
<text x="1200" y="1456" class="visual-title">Bar: Budget Variance by Category-Segment</text>
<text x="1200" y="1476" class="tiny">Metric: [Budget Variance]</text>
<text x="1200" y="1491" class="tiny">Axis: CategorySegment[Category-Segment]</text>
<rect x="1235.2" y="1561.4" width="26.0" height="26.6" class="bar"/>
<rect x="1288.2" y="1543.9" width="26.0" height="44.1" class="bar"/>
<rect x="1341.2" y="1518.1" width="26.0" height="69.9" class="bar"/>
<rect x="1394.2" y="1548.5" width="26.0" height="39.5" class="bar"/>
<rect x="1447.2" y="1531.8" width="26.0" height="56.2" class="bar"/>
<line x1="1206" y1="1588" x2="1524" y2="1588" class="axis"/>
<rect x="838" y="1624" width="430" height="160" rx="10" class="detail"/>
<rect x="868" y="1708" width="370" height="66" class="matrix-cell"/>
<rect x="868" y="1708" width="370" height="18" class="matrix-head"/>
<text x="878" y="1721" class="matrix-label">Matrix rows: Category &gt; Segment</text>
<text x="1035" y="1721" class="matrix-label">Actual</text>
<text x="1105" y="1721" class="matrix-label">Budget</text>
<text x="1175" y="1721" class="matrix-label">Var%</text>
<text x="878" y="1738" class="matrix-row-strong">[-] Category A</text>
<text x="896" y="1752" class="matrix-row">[+] Segment A1</text>
<rect x="868" y="1760" width="370" height="14" class="matrix-subtotal"/>
<text x="878" y="1766" class="matrix-total">Total</text>
<text x="1035" y="1738" class="matrix-row">1.2M</text>
<text x="1105" y="1738" class="matrix-row">1.3M</text>
<rect x="1172" y="1729" width="45" height="12" rx="3" class="matrix-bad"/>
<text x="1178" y="1738" class="matrix-row">-8%</text>
<text x="1035" y="1752" class="matrix-row">420K</text>
<text x="1105" y="1752" class="matrix-row">390K</text>
<rect x="1172" y="1743" width="45" height="12" rx="3" class="matrix-good"/>
<text x="1178" y="1752" class="matrix-row">+7%</text>
<text x="1035" y="1766" class="matrix-total">1.62M</text>
<text x="1105" y="1766" class="matrix-total">1.69M</text>
<text x="1178" y="1766" class="matrix-total">-4%</text>
<line x1="868" y1="1742" x2="1238" y2="1742" class="soft-line"/>
<line x1="868" y1="1756" x2="1238" y2="1756" class="soft-line"/>
<line x1="1025" y1="1726" x2="1025" y2="1774" class="soft-line"/>
<line x1="1095" y1="1726" x2="1095" y2="1774" class="soft-line"/>
<line x1="1165" y1="1726" x2="1165" y2="1774" class="soft-line"/>
<text x="850" y="1646" class="visual-title">Power BI Matrix: Category &gt; Segment by Month</text>
<text x="850" y="1666" class="tiny">Values: Revenue, Budget, Var $, Var %</text>
<text x="850" y="1681" class="tiny">Expandable rows, total row, red/green variance cells</text>
<rect x="1288" y="1624" width="254" height="160" rx="10" class="plan"/>
<text x="1300" y="1646" class="visual-title">Plan-only: 2021 Budget vs Forecast</text>
<text x="1300" y="1666" class="tiny">Metrics: [Budget], [Forecast]</text>
<text x="1300" y="1681" class="tiny">Axis: Month; no actual variance</text>
<polyline points="1306.0,1742.8 1360.5,1731.6 1415.0,1734.4 1469.5,1717.6 1524.0,1720.4" class="spark-plan"/>
<polyline points="1306.0,1748.4 1360.5,1737.2 1415.0,1727.4 1469.5,1723.9 1524.0,1714.8" class="spark-alt"/>
<line x1="1306" y1="1768" x2="1524" y2="1768" class="axis"/>
<text x="40" y="1852" class="small">Build note: placeholders are intentionally separated from labels. Keep real visuals below annotation or in a separate plot area.</text>
</svg>
